<?xml version="1.0" encoding="UTF-8" standalone="no"?>
<svg
   xmlns:svg="http://www.w3.org/2000/svg"
   xmlns="http://www.w3.org/2000/svg"
   version="1.1"
   id="svg4236"
   viewBox="0 0 923.22041 95.204195"
   height="95.204193"
   width="923.2204">
  <defs
     id="defs4238" />
  <g
     transform="translate(327.32448,-141.90297)"
     id="layer1">
    <path
       d="m -182.64473,165.69103 15.36173,32.81848 -30.83182,0 15.36173,-32.81848 0.10837,0 z m -21.77061,47.07593 43.54122,0 8.17883,17.57027 17.90051,0 -39.67114,-81.66434 -16.13573,0 -39.67114,81.66434 17.67862,0 8.17883,-17.57027 z m 544.01775,-47.07593 15.36172,32.81848 -30.83697,0 15.36172,-32.81848 0.1135,0 z m -21.77063,47.07593 43.53608,0 8.17882,17.57027 17.90568,0 -39.6763,-81.66434 -16.13575,0 -39.66596,81.66434 17.67862,0 8.17881,-17.57027 z M 155.73124,189.33994 c 0,24.97507 18.45265,42.76722 45.41437,42.76722 17.57027,0 27.07524,-6.52242 35.36757,-13.36992 l -9.17471,-11.94056 c -5.63487,4.31388 -13.59696,10.27899 -25.85745,10.27899 -17.01814,0 -28.51491,-11.3781 -28.51491,-27.73573 0,-16.35247 11.38326,-27.40548 27.84925,-27.40548 11.05301,0 18.34429,3.53468 24.42294,8.61742 l 9.0612,-12.04376 c -8.50908,-7.07455 -18.45265,-11.60515 -33.48414,-11.60515 -25.85744,0 -45.08411,17.68379 -45.08411,42.43697 m 320.79022,-31.49232 c -9.83521,-7.07454 -18.89641,-10.94465 -34.03626,-10.94465 -26.30121,0 -45.63625,17.46191 -45.63625,42.43697 0,25.08343 18.89126,42.76722 45.63625,42.76722 17.0233,0 28.73165,-5.7484 38.4585,-14.69608 l 0,-31.38911 -39.56276,0 0,13.92721 24.08751,0 0,10.82596 c -3.42116,2.76584 -10.49571,6.63594 -22.53948,6.63594 -17.12648,0 -29.06705,-11.71351 -29.06705,-28.07114 0,-16.35247 12.04893,-27.51901 28.62328,-27.51901 11.49678,0 19.00995,3.76174 24.97506,8.07045 l 9.0612,-12.04376 z m -750.3355,37.01366 c 3.97846,0 6.7443,0.5573 9.0612,2.32206 2.2137,1.66157 3.75659,4.31388 3.75659,7.95694 0,3.64821 -1.54289,6.40889 -3.75659,8.07045 -2.3169,1.76476 -5.08274,2.20854 -9.0612,2.20854 l -32.3747,0 0,-20.55799 32.3747,0 z m -3.20444,-31.27042 c 4.64411,0 7.07454,0.88238 8.73095,2.43042 1.54804,1.66156 2.43043,3.76174 2.43043,6.07864 0,2.32206 -0.88239,4.42224 -2.43043,6.07864 -1.65641,1.54288 -4.08684,2.43042 -8.73095,2.43042 l -29.17026,0 0,-17.01812 29.17026,0 z m 238.475719,66.74637 68.95491,0 0,-14.91796 -52.81916,0 0,-20.55799 39.55761,0 0,-14.2523 -39.55761,0 0,-17.01812 50.61062,0 0,-14.91797 -66.74637,0 0,81.66434 z m 581.593871,-64.6462 15.35656,32.81848 -30.83181,0 15.36172,-32.81848 0.11351,0 z m -21.77061,47.07593 43.53607,0 8.17882,17.57027 17.90051,0 -39.67114,-81.66434 -16.13059,0 -39.67629,81.66434 17.68379,0 8.17883,-17.57027 z m -247.98586,-64.09407 -16.13575,0 0,81.66434 16.13575,0 0,-81.66434 z m -334.160151,66.74638 -39.119,0 0,-66.74638 -16.135749,0 0,81.66434 55.254749,0 0,-14.91796 z m 132.38847,-9.83523 c 0,-17.34837 -0.77402,-32.59657 -0.77402,-32.59657 l 0.22189,0 c 0,0 7.51316,10.7176 21.21848,27.62221 l 24.092671,29.72755 15.80034,0 0,-81.66434 -16.13574,0 0,25.19695 c 0,17.34839 0.66049,32.71012 0.66049,32.71012 l -0.21672,0 c 0,0 -7.51832,-10.7176 -21.110121,-27.7409 l -24.08752,-30.16617 -15.8055,0 0,81.66434 16.13575,0 0,-24.75319 z m -344.232729,24.75319 c 9.28309,0 14.91795,-1.98666 19.34019,-5.41299 5.85676,-4.5306 9.50498,-11.60515 9.50498,-20.11421 0,-12.04376 -7.95694,-18.45265 -14.58772,-20.11421 l 0,-0.21673 c 6.30054,-2.8742 9.72687,-9.39661 9.72687,-15.8055 0,-7.29127 -2.8742,-12.37401 -7.4048,-15.57846 -4.42224,-3.09607 -10.38735,-4.42224 -20.77472,-4.42224 l -45.41952,0 0,81.66434 49.61472,0 z"
       style="fill:#141414;fill-opacity:1;fill-rule:nonzero;stroke:none"
       id="path32" />
  </g>
</svg>
