<?xml version="1.0" encoding="UTF-8"?>
<svg width="600" height="115" version="1.1" xmlns="http://www.w3.org/2000/svg">
 <path d="m436.77 94.44-22.33-31.773c-0.10291-0.14173-0.17073-0.3059-0.19739-0.4785-0.0281-0.17307-0.014-0.34987 0.0421-0.51592 0.0547-0.16652 0.14874-0.31713 0.27363-0.44015 0.12488-0.12301 0.27737-0.21516 0.44482-0.26801 4.9913-1.6418 9.3328-4.8135 12.404-9.0618 3.0707-4.2481 4.7139-9.3548 4.6942-14.589 0 0 1.573-26.58-30.247-26.58-9.3015-0.14875-18.513 1.8259-26.929 5.7723v1.3792c1.4294 0.49618 2.6741 1.4131 3.5684 2.6294 0.89479 1.2163 1.3971 2.6745 1.4411 4.1816v69.693c0.0917 1.3808-0.20393 2.7597-0.85269 3.9833-0.64923 1.2236-1.6263 2.2438-2.8233 2.9468v1.7026h19.286v-1.7026s-2.8892-1.7026-2.8892-6.8108v-30.258c0-0.45184 0.18008-0.8845 0.50048-1.204 0.32087-0.31947 0.75587-0.49862 1.2091-0.49862h3.9328c0.4495 9.4e-4 0.89292 0.10992 1.2914 0.31713 0.39898 0.20768 0.74183 0.5075 0.99956 0.87468l27.083 38.533c0.15763 0.21422 0.36344 0.38916 0.60058 0.51077 0.23762 0.12115 0.50049 0.18523 0.7671 0.1871h15.252v-1.7026c-3.0001-1.6385-5.5577-3.9753-7.4549-6.8113zm-37.462-38.805h-4.9754c-0.45371 0-0.88825-0.17962-1.2091-0.49862-0.3204-0.31946-0.50095-0.75259-0.50095-1.204v-31.773c-5e-3 -0.67626 0.23949-1.3308 0.68711-1.8394 0.44763-0.50853 1.0674-0.83562 1.7409-0.91911 1.8251-0.24697 3.6638-0.37794 5.5058-0.3915 10.857 0 17.713 6.7088 17.713 18.321 0 12.975-7.54 18.304-18.962 18.304zm-203.06 7.032 22.347 31.773v0.0187c1.9056 2.835 4.4683 5.1709 7.4722 6.8113v1.7026h-15.218c-0.26989 9.4e-4 -0.53604-0.0622-0.77646-0.18335-0.24088-0.12162-0.44903-0.29796-0.60853-0.51452l-27.066-38.533c-0.261-0.36858-0.60667-0.66934-1.0085-0.87655-0.40132-0.20768-0.84754-0.31572-1.2998-0.31526h-3.9155c-0.45371 0-0.88871 0.17915-1.2091 0.49862-0.32087 0.31946-0.50095 0.75213-0.50095 1.204v30.258c0 5.1082 2.9065 6.8108 2.9065 6.8108v1.7026h-19.286v-1.7026c1.1937-0.70535 2.1675-1.7264 2.8135-2.9496 0.64595-1.2236 0.93876-2.6016 0.84568-3.9805v-69.693c-0.0421-1.5071-0.54633-2.9653-1.4411-4.1816s-2.139-2.1332-3.5689-2.6294v-1.3792c8.4175-3.9424 17.629-5.9168 26.93-5.7723 31.836 0 30.263 26.58 30.263 26.58 0.0187 5.2338-1.6268 10.339-4.6975 14.587-3.0707 4.2478-7.4109 7.42-12.401 9.0641-0.16885 0.051-0.32274 0.14126-0.44997 0.26381-0.12675 0.12208-0.22264 0.27269-0.27924 0.43921-0.0571 0.16604-0.073 0.34379-0.0472 0.51779 0.0234 0.17353 0.0926 0.33911 0.19552 0.48177zm-20.09-7.032h4.9927c11.421 0 18.944-5.3296 18.944-18.304 0-11.613-6.8562-18.321-17.696-18.321-1.8476 0.014-3.6924 0.14453-5.5231 0.3915-0.67215 0.087-1.2896 0.41536-1.7367 0.92286-0.44669 0.50778-0.69272 1.1604-0.69085 1.8356v31.773c0 0.45137 0.18008 0.8845 0.50048 1.204 0.32087 0.319 0.75587 0.49861 1.2091 0.49861zm-118.96-1.8083c0.11086 0.14172 0.25492 0.25398 0.41957 0.32695v0.0851c8.737 3.7798 14.773 12.021 14.773 23.294 0 16.159-11.781 25.541-26.28 25.541h-34.76v-1.703c1.1923-0.70676 2.1651-1.7278 2.8109-2.951 0.64572-1.2231 0.93927-2.6002 0.84811-3.9791v-69.131c-0.0421-1.507-0.54637-2.9652-1.441-4.1816-0.8946-1.2163-2.1391-2.1332-3.5687-2.6294v-1.3792c5.8646-3.5247 15.388-6.3853 26.69-6.3853 29.203 0 27.75 24.4 27.75 24.4 0.0781 3.2079-0.51546 6.3968-1.7428 9.3635-1.2274 2.9668-3.0623 5.6464-5.387 7.8682-0.13096 0.12348-0.22919 0.2769-0.28625 0.44716-0.0571 0.16979-0.0711 0.35174-0.0421 0.52878 0.0281 0.17681 0.10431 0.34379 0.21469 0.48505zm-28.629-33.958c-0.44342 0.50736-0.68679 1.1578-0.68473 1.8305h-0.0327v28.419c0 0.45138 0.18008 0.88469 0.50081 1.204 0.32087 0.31947 0.75554 0.49871 1.209 0.49871h6.104c10.156 0 16.995-5.4998 16.995-16.295 0-10.795-6.3946-17.027-16.5-17.027-1.9624 0.0234-3.9214 0.16886-5.8646 0.44249-0.66925 0.0907-1.2826 0.4205-1.7261 0.92795zm1.538 76.206h9.934l0.0327-0.0327c11.028 0 18.295-7.0493 18.295-18.628 0-11.817-7.2669-18.628-18.295-18.628h-10.481c-0.45371 0-0.88838 0.17962-1.209 0.49909-0.32087 0.319-0.50076 0.75212-0.50076 1.204v33.357c-5e-5 0.58842 0.2334 1.1534 0.64997 1.5712 0.41629 0.41816 0.9817 0.65484 1.5727 0.65951zm250.88-41.921c-0.16465-0.073-0.30871-0.18523-0.4191-0.32695-0.11085-0.14126-0.18476-0.30825-0.21516-0.48505-0.0281-0.17681-0.0187-0.35876 0.0421-0.52878 0.0571-0.17026 0.15529-0.32415 0.28626-0.44717 2.3251-2.2218 4.1596-4.9014 5.387-7.8682 1.2278-2.9668 1.8214-6.1556 1.7433-9.3635 0 0 1.4701-24.4-27.75-24.4-11.251 0-20.808 2.8606-26.69 6.3853v1.3792c1.4318 0.49543 2.6783 1.4117 3.5759 2.6278 0.89759 1.2161 1.4037 2.6747 1.4509 4.1832v69.131c0.0898 1.3808-0.20627 2.7587-0.8555 3.9819-0.64876 1.2231-1.6249 2.2438-2.8205 2.9482v1.703h34.76c14.516 0 26.28-9.3824 26.28-25.541 0-11.272-6.0189-19.514-14.773-23.294zm-29.733-32.454c-1e-3 -0.67523 0.24416-1.3278 0.69132-1.8356 0.4467-0.50774 1.0646-0.83586 1.7367-0.92286 1.9715-0.27877 3.959-0.42658 5.9501-0.44248 10.105 0 16.482 6.232 16.482 17.027s-6.8388 16.295-16.995 16.295h-6.104c-0.45324 0-0.88824-0.17914-1.2086-0.4987-0.32087-0.31947-0.50095-0.75241-0.50095-1.204v-28.419zm12.157 74.376h-9.968c-0.29421 0-0.58514-0.058-0.8569-0.16979-0.27176-0.11226-0.51872-0.27644-0.72687-0.48365-0.20768-0.20721-0.37279-0.45277-0.48552-0.72359-0.11272-0.27083-0.17025-0.56083-0.17025-0.85363v-33.357c0-0.45184 0.18008-0.88497 0.50048-1.204 0.32087-0.31947 0.75587-0.49908 1.2091-0.49908h10.481c11.045 0 18.312 6.8113 18.312 18.628 0 11.578-7.2668 18.628-18.312 18.628zm-132.92-82.259v-1.7027h15.32v1.7027c-1.1956 0.7003-2.1722 1.7174-2.8214 2.9381-0.64876 1.2206-0.94484 2.5968-0.85457 3.9751v57.007c0 16.959-9.353 26.546-27.357 26.546s-29.443-9.5181-29.443-26.546v-56.956c0.0903-1.3783-0.20581-2.7544-0.85503-3.9751-0.64876-1.2206-1.6259-2.2378-2.821-2.9381v-1.7027h19.286v1.7027s-2.8897 1.7028-2.8897 6.811v54.879c0 14.439 5.3519 20.586 17.492 20.586 12.139 0 17.833-5.9422 17.833-19.002v-56.514c-0.0187-5.1082-2.8897-6.811-2.8897-6.811zm360.96 48.851 22.33 31.773v0.0187c1.899 2.8359 4.4529 5.1728 7.4558 6.8113v1.7026h-15.183c-0.27129 9.4e-4 -0.5379-0.0622-0.77645-0.18335-0.24323-0.12162-0.44903-0.29796-0.60807-0.51452l-27.068-38.533c-0.25773-0.36718-0.60058-0.667-0.99957-0.87468-0.39851-0.20721-0.84147-0.31619-1.2914-0.31713h-3.9328c-0.45324 0-0.88824 0.17915-1.2091 0.49862-0.3204 0.31946-0.50048 0.75213-0.50048 1.204v30.258c0 5.1082 2.8892 6.8108 2.8892 6.8108v1.7026h-19.286v-1.7026c1.197-0.70301 2.1741-1.7232 2.8233-2.9468 0.64923-1.2236 0.94438-2.6025 0.8527-3.9833v-69.693c-0.0472-1.5085-0.55334-2.9671-1.4509-4.1832-0.89759-1.2161-2.1441-2.1324-3.5759-2.6278v-1.3792c8.4231-3.9444 17.64-5.9188 26.948-5.7723 31.816 0 30.244 26.58 30.244 26.58 0.0187 5.2344-1.6231 10.341-4.6961 14.589-3.0684 4.2482-7.409 7.42-12.4 9.0618-0.16839 0.0528-0.32275 0.145-0.44436 0.26802-0.12629 0.12301-0.21984 0.27362-0.27597 0.44014-0.0561 0.16605-0.0702 0.34286-0.0421 0.51592 0.0281 0.1726 0.0935 0.33677 0.19645 0.4785zm-20.107-7.032h4.9754c11.423 0 18.963-5.3296 18.963-18.304 0-11.613-6.8571-18.321-17.714-18.321-1.8476 0.014-3.6919 0.14453-5.5226 0.3915-0.67074 0.0875-1.2863 0.41629-1.7306 0.92421-0.44389 0.50816-0.68571 1.1606-0.6801 1.8342v31.773c0 0.45137 0.18008 0.8845 0.50048 1.204 0.32088 0.319 0.75588 0.49861 1.2091 0.49861zm101.32-43.573v1.7027s3.625 1.192 0.53323 6.811l-17.288 31.024c-0.0982 0.16932-0.24322 0.31011-0.41161 0.40787-0.17306 0.0978-0.36484 0.14921-0.56129 0.14921s-0.3929-0.0515-0.56129-0.14921c-0.17306-0.0978-0.31339-0.23855-0.41629-0.40787l-17.335-31.109c-3.0964-5.5509 0.52855-6.811 0.52855-6.811v-1.7027h-22.587v1.7027c3.1853 1.3688 5.814 3.7688 7.4558 6.811l23.27 41.751c0.41162 0.74652 0.62678 1.5838 0.63145 2.4351v29.713c0.0935 1.3808-0.20113 2.7597-0.85129 3.9833s-1.6277 2.2438-2.8252 2.9468v1.7026h20.024v-1.7026c-1.1974-0.70301-2.175-1.7232-2.8252-2.9468-0.64548-1.2236-0.94484-2.6025-0.85129-3.9833v-29.577c5e-3 -0.85129 0.21984-1.6886 0.63145-2.4346l23.322-41.751c1.6418-3.0421 4.2705-5.4422 7.4558-6.811v-1.7027zm-245.29 84.064h27.562c1.3869 0.0912 2.7714-0.203 4.0001-0.84942 1.2288-0.64642 2.2531-1.6198 2.9589-2.8116h1.7101v10.608h-54.851v-1.703c1.1923-0.70676 2.1652-1.7278 2.8107-2.951 0.64595-1.2231 0.93923-2.6002 0.84848-3.9791v-73.711c0.0917-1.3766-0.20159-2.7516-0.84754-3.972-0.64596-1.2205-1.6193-2.2386-2.8116-2.9411v-1.7027h51.054v10.54h-1.7096c-0.71564-1.1838-1.7456-2.1475-2.9767-2.7846-1.2311-0.63706-2.6151-0.92267-3.9992-0.82524h-23.766c-0.59403 0-1.1637 0.23481-1.5838 0.6533-0.42003 0.41816-0.65577 0.98567-0.65577 1.5773v29.151c0 0.45137 0.18008 0.88469 0.50048 1.204 0.32087 0.31947 0.7554 0.49876 1.2091 0.49876h15.029c5.1297 0 6.8393-2.9287 6.8393-2.9287h1.7096v12.787h-1.7096s-1.7096-2.9454-6.8393-2.9454h-15.012c-0.45324 0-0.88824 0.17914-1.2086 0.49861-0.32087 0.319-0.50096 0.75213-0.50096 1.204v33.152c0 0.5917 0.23621 1.1591 0.65625 1.5772 0.42003 0.41863 0.98974 0.65343 1.5838 0.65343z"/>
</svg>
