<?xml version="1.0" encoding="UTF-8" standalone="no"?>
<!-- Created with Inkscape (http://www.inkscape.org/) -->

<svg
   xmlns:dc="http://purl.org/dc/elements/1.1/"
   xmlns:cc="http://creativecommons.org/ns#"
   xmlns:rdf="http://www.w3.org/1999/02/22-rdf-syntax-ns#"
   xmlns:svg="http://www.w3.org/2000/svg"
   xmlns="http://www.w3.org/2000/svg"
   version="1.1"
   width="250"
   height="30"
   id="svg2"
   xml:space="preserve"><metadata
     id="metadata8"><rdf:RDF><cc:Work
         rdf:about=""><dc:format>image/svg+xml</dc:format><dc:type
           rdf:resource="http://purl.org/dc/dcmitype/StillImage" /><dc:title></dc:title></cc:Work></rdf:RDF></metadata><defs
     id="defs6" /><g
     transform="matrix(1.25,0,0,-1.25,-10.719725,146.39888)"
     id="g10"><path
       d="m 24.50249,104.37595 4.5527,6.3291 1.6789,0 0,-11.125196 -1.9141,0 0,7.781196 -4.3183,-5.9445 -4.3184,5.9445 0,-7.781196 -1.90662,0 0,11.125196 1.70082,0 4.525,-6.3291 z m 21.9355,-1.9371 -6.0641,0 -1.5203,-2.858996 -2.0965,0 5.9055,11.125196 1.4875,0 5.9692,-11.125196 -2.1149,0 -1.5664,2.858996 z m -5.1394,1.7395 4.2328,0 -2.1239,3.9327 -2.1089,-3.9327 z m 23.0168,0.148 2.9269,-4.746496 -2.168,0 -2.8793,4.649996 -4.0769,0 0,-4.649996 -1.9246,0 0,11.125196 6.8476,0 c 0.9934,0 2.02,-0.197 2.8059,-0.841 0.7375,-0.601 1.0523,-1.42 1.0523,-2.362 0,-0.819 -0.2621,-1.5405 -0.816,-2.146 -0.4851,-0.5309 -1.0875,-0.8602 -1.7679,-1.0297 z m -6.1973,1.643 4.8308,0 c 0.4922,0 1.0879,0.0715 1.4864,0.3907 0.3492,0.276 0.4648,0.668 0.4648,1.103 0,0.441 -0.1262,0.827 -0.4703,1.114 -0.3844,0.324 -0.9227,0.408 -1.4098,0.408 l -4.9019,0 0,-3.0157 z m 25.2961,-2.3953 1.5562,-1.0707 -0.1133,-0.1985 c -0.5441,-0.9535 -1.3007,-1.705 -2.2656,-2.2285 -1.0062,-0.543696 -2.1078,-0.776196 -3.2468,-0.776196 -1.6825,0 -3.2028,0.4868 -4.4415,1.641396 -1.2011,1.1231 -1.7625,2.5352 -1.7625,4.1747 0,1.6438 0.5622,3.0588 1.77,4.1818 1.2375,1.153 2.7597,1.64 4.434,1.64 1.0519,0 2.0707,-0.203 3.0175,-0.669 0.909,-0.447 1.6598,-1.088 2.2344,-1.922 l 0.1441,-0.21 -1.6328,-1.073 -0.1312,0.229 c -0.3485,0.609 -0.8422,1.069 -1.4625,1.396 -0.6762,0.354 -1.4082,0.51 -2.1695,0.51 -1.1653,0 -2.1981,-0.348 -3.0422,-1.159 -0.8258,-0.798 -1.1946,-1.784 -1.1946,-2.9238 0,-1.1395 0.3668,-2.127 1.1942,-2.9231 0.8453,-0.8094 1.8789,-1.1535 3.0426,-1.1535 0.8101,0 1.5816,0.1746 2.2843,0.5844 0.7067,0.4136 1.2434,1.0113 1.6508,1.7172 l 0.1344,0.2328 z m 14.3769,1.0777 1.9243,0 0,-1.9051 c 0,-0.5582 0.1972,-0.9976 0.6929,-1.2758 0.666,-0.3777 1.7957,-0.4312 2.5434,-0.4312 0.6617,0 1.7859,0.0574 2.314,0.5176 0.5055,0.4398 0.577,1.3996 0.577,2.0176 l 0,7.1302 1.9246,0 0,-7.4849 c 0,-1.1344 -0.2684,-2.2965 -1.2117,-3.0176 -1.0082,-0.770296 -2.6414,-0.902396 -3.8637,-0.902396 -1.1812,0 -2.6461,0.1379 -3.6504,0.822296 -0.8898,0.6106 -1.2504,1.5238 -1.2504,2.5848 l 0,1.9445 z m 25.2568,-2.2129 -6.065,0 -1.52,-2.858996 -2.096,0 5.905,11.125196 1.488,0 5.969,-11.125196 -2.115,0 -1.566,2.858996 z m -5.14,1.7395 4.233,0 -2.124,3.9327 -2.109,-3.9327 z m 24.315,-0.6043 1.555,-1.0707 -0.113,-0.1985 c -0.544,-0.9535 -1.3,-1.705 -2.265,-2.2285 -1.006,-0.543696 -2.108,-0.776196 -3.247,-0.776196 -1.683,0 -3.202,0.4868 -4.441,1.641396 -1.201,1.1231 -1.763,2.5352 -1.763,4.1747 0,1.6438 0.562,3.0588 1.77,4.1818 1.237,1.153 2.76,1.64 4.434,1.64 1.052,0 2.071,-0.203 3.018,-0.669 0.908,-0.447 1.659,-1.088 2.234,-1.922 l 0.144,-0.21 -1.633,-1.073 -0.131,0.229 c -0.348,0.609 -0.842,1.069 -1.463,1.396 -0.676,0.354 -1.408,0.51 -2.169,0.51 -1.165,0 -2.198,-0.347 -3.042,-1.159 -0.826,-0.798 -1.195,-1.784 -1.195,-2.9238 0,-1.1395 0.367,-2.127 1.194,-2.9231 0.846,-0.8098 1.879,-1.1535 3.043,-1.1535 0.81,0 1.582,0.175 2.284,0.5844 0.707,0.414 1.244,1.0113 1.651,1.7172 l 0.135,0.2328 z m 13.877,-4.273896 c -1.68,0 -3.203,0.4879 -4.441,1.641396 -1.201,1.1231 -1.763,2.5352 -1.763,4.1747 0,1.6438 0.562,3.0588 1.771,4.1818 1.237,1.153 2.759,1.64 4.433,1.64 1.684,0 3.21,-0.486 4.455,-1.646 1.21,-1.121 1.781,-2.531 1.781,-4.1758 0,-1.6426 -0.567,-3.054 -1.774,-4.1754 -1.247,-1.154696 -2.774,-1.640696 -4.462,-1.640696 z m 0,1.739496 c 1.164,0 2.197,0.3441 3.042,1.1535 0.828,0.7961 1.195,1.7836 1.195,2.9231 0,1.1418 -0.366,2.1328 -1.191,2.9298 -0.842,0.814 -1.883,1.153 -3.046,1.153 -1.165,0 -2.197,-0.348 -3.041,-1.159 -0.826,-0.798 -1.195,-1.784 -1.195,-2.9238 0,-1.1395 0.366,-2.127 1.194,-2.9231 0.845,-0.8094 1.879,-1.1535 3.042,-1.1535 z m 23.203,4.8484 c 0.448,-0.2851 0.846,-0.6414 1.143,-1.0886 0.351,-0.5348 0.51,-1.1344 0.51,-1.7731 0,-1.0125 -0.35,-1.8808 -1.137,-2.5289 -0.847,-0.695296 -1.93,-0.917596 -3.002,-0.917596 l -7.421,0 0,11.125196 7.058,0 c 0.923,0 1.966,-0.142 2.718,-0.721 0.698,-0.534 0.969,-1.311 0.969,-2.173 0,-0.44 -0.088,-0.869 -0.301,-1.256 -0.14,-0.258 -0.319,-0.4806 -0.537,-0.667 z m -7.982,-4.5886 5.777,0 c 0.505,0 0.999,0.1117 1.374,0.4675 0.359,0.3407 0.485,0.793 0.485,1.2789 0,0.4848 -0.13,0.9321 -0.485,1.2723 -0.375,0.3563 -0.868,0.4707 -1.374,0.4707 l -5.777,0 0,-3.4894 z m 0,5.2086 5.258,0 c 0.414,0 0.895,0.063 1.23,0.328 0.286,0.225 0.386,0.54 0.386,0.896 0,0.354 -0.083,0.703 -0.37,0.934 -0.328,0.264 -0.841,0.319 -1.246,0.319 l -5.258,0 0,-2.477 z m 24.933,-2.4196 c -0.519,0.3719 -1.227,0.5102 -1.854,0.5571 -0.286,0.0277 -0.579,0.0433 -0.868,0.0585 -1.122,0.0719 -2.909,0.2 -3.954,0.6352 -0.509,0.2281 -0.986,0.5473 -1.321,0.9998 -0.309,0.417 -0.465,0.894 -0.465,1.413 0,1.011 0.527,1.767 1.353,2.317 0.986,0.659 2.191,0.869 3.359,0.869 0.992,0 1.968,-0.151 2.915,-0.448 0.974,-0.304 1.889,-0.752 2.732,-1.326 l 0.216,-0.148 -1.139,-1.501 -0.198,0.145 c -0.665,0.491 -1.387,0.888 -2.171,1.155 -0.755,0.257 -1.536,0.384 -2.333,0.384 -0.687,0 -1.42,-0.099 -2.03,-0.436 -0.368,-0.204 -0.715,-0.498 -0.715,-0.952 0,-0.137 0.033,-0.266 0.102,-0.385 0.081,-0.141 0.215,-0.261 0.343,-0.355 0.613,-0.425 2.215,-0.538 2.94,-0.579 0.562,-0.031 1.13,-0.066 1.689,-0.126 1.045,-0.112 2.091,-0.4135 2.91,-1.0987 0.713,-0.5996 1.11,-1.364 1.11,-2.3004 0,-1.1504 -0.575,-2.0203 -1.511,-2.6605 -1.116,-0.764096 -2.486,-1.006296 -3.817,-1.006296 -1.107,0 -2.212,0.1422 -3.27,0.475 -1.036,0.322296 -2,0.818796 -2.883,1.448096 l -0.204,0.1457 1.13,1.55 0.201,-0.1449 c 0.76,-0.5481 1.587,-0.9961 2.474,-1.3043 0.816,-0.2867 1.665,-0.4496 2.531,-0.4496 0.838,0 1.737,0.1316 2.459,0.5863 0.521,0.3266 0.88,0.7668 0.88,1.4 0,0.4703 -0.23,0.8152 -0.611,1.082"
       id="path16"
       style="fill:#231f20;fill-opacity:1;fill-rule:evenodd;stroke:none" /></g></svg>