<?xml version="1.0" encoding="UTF-8" standalone="no"?>
<svg
   xmlns:svg="http://www.w3.org/2000/svg"
   xmlns="http://www.w3.org/2000/svg"
   version="1.1"
   width="577.30048"
   height="63.383049"
   id="svg3161">
  <defs
     id="defs3163" />
  <g
     transform="translate(-79.31097,-665.20007)"
     id="layer1">
    <path
       d="m 207.80128,706.45908 c -2.6813,4.70728 -6.4363,7.82047 -13.306,7.82047 -9.59152,0 -16.97406,-7.79046 -16.97406,-17.38496 0,-9.60649 7.38254,-17.38045 16.97406,-17.38045 7.02414,0 11.23955,3.52558 13.80839,8.7547 l 10.17931,0 c -2.7008,-10.51976 -12.44673,-18.06877 -24.19467,-18.06877 -14.75914,0 -26.07516,11.92338 -26.07516,26.69452 0,14.76515 11.31602,26.68853 26.07516,26.68853 11.39553,0 20.79507,-6.74375 23.88725,-17.12404 l -10.37428,0 z m 422.20535,17.12359 c -8.79071,0 -17.89332,-3.62606 -22.76107,-10.6907 l 7.86096,-5.66852 c 3.70553,5.01918 9.08162,7.48756 14.90011,7.48756 5.09415,0 11.57096,-1.52813 11.57096,-6.47681 0,-5.59204 -9.45954,-6.47233 -13.67793,-7.49355 -8.36332,-2.03647 -17.82284,-3.84649 -17.82284,-14.75916 0,-10.69669 10.26481,-15.78037 19.71835,-15.78037 8.72471,0 15.99181,3.12669 21.30792,10.10736 l -7.63451,5.74351 c -3.4236,-4.36086 -7.48303,-6.97621 -13.67341,-6.97621 -5.52156,0 -9.67547,1.96753 -9.67547,5.53208 0,5.74352 8.21185,5.80949 15.27351,7.54903 7.49204,1.82502 16.21826,4.08344 16.21826,14.69916 0,12.44225 -11.41653,16.72662 -21.60484,16.72662 m -38.18482,-35.05185 c 0,4.28439 -3.4896,7.77548 -7.77998,7.77548 l -15.19704,0 0,-15.56593 15.19704,0 c 4.29038,0 7.77998,3.49109 7.77998,7.79045 m 11.06858,33.81917 -10.84215,-18.69709 c 5.38059,-2.83128 9.08162,-8.58377 9.08162,-15.12208 0,-9.45504 -7.63299,-17.0985 -17.08803,-17.0985 l -24.51108,0 0,50.91767 9.31404,0 0,-16.74161 13.53249,0 9.58996,16.74161 10.92315,0 z m -63.44016,-25.45583 c 0,9.59448 -7.78445,17.38494 -17.37445,17.38494 -9.60651,0 -17.38497,-7.79046 -17.38497,-17.38494 0,-9.60499 7.77846,-17.38047 17.38497,-17.38047 9.59,0 17.37445,7.77548 17.37445,17.38047 m 9.31856,0 c 0,-14.76967 -11.93837,-26.69304 -26.69301,-26.69304 -14.77564,0 -26.68852,11.92337 -26.68852,26.69304 0,14.76513 11.91288,26.68851 26.68852,26.68851 14.75464,0 26.69301,-11.92338 26.69301,-26.68851 m -65.24554,25.45657 -16.73112,-23.42538 -6.5428,6.68376 0,16.74162 -9.31407,0 0,-50.9177 9.31407,0 0,21.24196 20.6541,-21.24196 12.35528,0 -19.85331,20.65862 21.61384,30.25908 -11.49597,0 z m -99.80941,0 0,-50.9177 9.31406,0 0,41.60366 21.8253,0 0,9.31404 -31.13936,0 z m -48.72557,0 0,-50.9177 35.34877,0 0,9.30807 -26.04518,0 0,11.49599 26.04518,0 0,9.31408 -26.04518,0 0,11.48552 26.04518,0 0,9.31404 -35.34877,0 z m -25.60742,-20.72951 -13.81889,0 6.90866,-17.53043 6.91023,17.53043 z m 18.3312,20.72908 -20.43817,-50.91768 -9.60499,0 -20.44265,50.91768 10.04738,0 4.65179,-11.56199 21.09199,0 4.65177,11.56199 10.04288,0 z m -67.06669,4.3e-4 0,-20.79956 -23.64133,0 0,20.79956 -9.30805,0 0,-50.9177 9.30805,0 0,20.80406 23.64133,0 0,-20.80406 9.30807,0 0,50.9177 -9.30807,0 z m -110.28985,-50.91827 9.31407,0 0,50.9177 -9.31407,0 0,-50.9177 z m -21.24226,50.91827 0,-36.65641 -12.65367,36.65641 -10.18835,0 -12.64769,-36.65641 0,36.65641 -9.31257,0 0,-50.9177 13.823388,0 13.231052,36.66543 13.24154,-36.66543 13.82038,0 0,50.9177 -9.31408,0 z"
       id="path136"
       style="fill:#000000;fill-opacity:1;fill-rule:nonzero;stroke:none" />
  </g>
</svg>
