<?xml version="1.0" encoding="utf-8"?>
<!-- Generator: Adobe Illustrator 23.0.5, SVG Export Plug-In . SVG Version: 6.00 Build 0)  -->
<svg version="1.1" id="layer" xmlns="http://www.w3.org/2000/svg" xmlns:xlink="http://www.w3.org/1999/xlink" x="0px" y="0px"
	 viewBox="0 0 600.2 89.4" style="enable-background:new 0 0 600.2 89.4;" xml:space="preserve">
<path d="M396,13.9c-17.1,0-29.1,13.5-29.1,30.7s12.1,30.8,29.4,30.8c17.1,0,29.1-13.5,29.1-30.7C425.3,27.5,413.2,13.9,396,13.9
	 M396,89.3c-26.5,0-45-19.7-45-44.6C351,19.9,369.7,0,396.3,0c26.5,0,45.1,19.7,45.1,44.6C441.3,69.4,422.5,89.3,396,89.3
	 M115.3,13.9c-17.1,0-29,13.5-29,30.7s12.1,30.8,29.2,30.8s29.1-13.5,29.1-30.7C144.6,27.5,132.5,13.9,115.3,13.9 M115.3,89.3
	c-26.5,0-45.1-19.7-45.1-44.6C70.2,19.9,88.9,0,115.5,0c26.5,0,45.1,19.7,45.1,44.6C160.6,69.4,141.9,89.3,115.3,89.3 M204.6,87.8
	l-23.4-61.9v61.9h-15V1.5h21.6L208.9,57l21-55.5h21.5v86.3h-15.2v-62l-23.5,62L204.6,87.8z M554.1,15.3h-17V74h17
	c18.3,0,30-11.9,30-29.2C584.1,27.7,572.8,15.3,554.1,15.3 M554.1,87.8h-32.2V1.4h32.4c27.8,0,45.7,18.1,45.7,43.1
	C600,68.9,582.4,87.8,554.1,87.8 M482.1,15.3H462v25.4h20.2c11.7,0,18.3-5,18.3-13.1C500.6,18.1,493.4,15.3,482.1,15.3 M502.4,87.8
	L481,54.4h-19v33.3h-15.1V1.3h38.2c20.1,0,31,9.5,31,25.6c0,14.7-8.3,22.2-18.9,24.7l23,36L502.4,87.8z M349.6,15.3h-49.1v25.4h45.3
	v13.8h-45.3v33.3h-15.2V1.4h64.3V15.3z M44.7,87.8H29.4V15.3H0V1.4h73.8v13.9H44.7L44.7,87.8z"/>
</svg>
