<?xml version="1.0" encoding="UTF-8" standalone="no"?>
<svg
   version="1.0"
   width="19629.975pt"
   height="9662pt"
   viewBox="0 0 19629.975 9662"
   preserveAspectRatio="xMidYMid meet"
   id="svg24"
   sodipodi:docname="Valentino_logo.svg"
   inkscape:version="1.1.1 (3bf5ae0d25, 2021-09-20)"
   xmlns:inkscape="http://www.inkscape.org/namespaces/inkscape"
   xmlns:sodipodi="http://sodipodi.sourceforge.net/DTD/sodipodi-0.dtd"
   xmlns="http://www.w3.org/2000/svg"
   xmlns:svg="http://www.w3.org/2000/svg">
  <defs
     id="defs28" />
  <sodipodi:namedview
     id="namedview26"
     pagecolor="#ffffff"
     bordercolor="#999999"
     borderopacity="1"
     inkscape:pageshadow="0"
     inkscape:pageopacity="0"
     inkscape:pagecheckerboard="0"
     inkscape:document-units="pt"
     showgrid="false"
     fit-margin-top="10"
     fit-margin-right="10"
     fit-margin-bottom="10"
     fit-margin-left="10"
     inkscape:zoom="0.0269625"
     inkscape:cx="13110.802"
     inkscape:cy="6286.509"
     inkscape:window-width="1920"
     inkscape:window-height="1001"
     inkscape:window-x="-9"
     inkscape:window-y="-9"
     inkscape:window-maximized="1"
     inkscape:current-layer="svg24" />
  <g
     transform="matrix(0.1,0,0,-0.1,-162,14722)"
     fill="#000000"
     stroke="none"
     id="g22">
    <path
       d="m 84130,147109 c -1358,-45 -2737,-238 -4065,-570 -3996,-999 -7616,-3276 -10289,-6473 -2563,-3065 -4135,-6838 -4485,-10766 -60,-671 -75,-1039 -75,-1820 0,-672 5,-874 40,-1380 170,-2515 828,-4970 1934,-7227 857,-1747 1915,-3291 3250,-4738 219,-238 778,-799 1010,-1015 2048,-1903 4385,-3313 6997,-4219 1131,-392 2374,-692 3583,-865 587,-84 1011,-125 1855,-178 260,-16 31785,-25 32305,-8 3694,115 7182,1233 10249,3283 3055,2041 5489,4909 7006,8252 927,2043 1493,4241 1674,6500 74,920 80,2013 15,2970 -275,4107 -1855,8029 -4517,11211 -2106,2520 -4786,4466 -7812,5674 -1949,779 -3985,1228 -6110,1350 -460,26 -901,30 -3787,30 h -3038 v -755 -755 h 1841 c 1749,0 1841,-1 1836,-17 -3,-14 -10488,-26360 -10814,-27176 l -79,-198 -4467,13678 c -2456,7523 -4469,13686 -4473,13696 -6,16 103,17 1960,17 h 1966 v 755 755 l -6637,-2 c -3651,0 -6744,-5 -6873,-9 z m 8907,-19724 c 3351,-10021 6095,-18228 6099,-18238 5,-17 -319,-17 -7263,-14 -5404,3 -7313,6 -7443,15 -946,63 -1476,121 -2180,237 -4336,717 -8303,2922 -11181,6215 -2568,2939 -4106,6567 -4398,10375 -41,526 -46,687 -46,1395 0,816 19,1211 90,1890 465,4413 2603,8525 6007,11551 3101,2757 7031,4425 11178,4743 618,48 821,53 2000,52 l 1045,-1 z m 22658,18215 c 1374,-54 2645,-233 3950,-557 4193,-1040 7924,-3494 10512,-6913 971,-1284 1772,-2698 2365,-4178 688,-1719 1098,-3521 1223,-5372 52,-779 45,-1896 -15,-2630 -130,-1563 -432,-2997 -935,-4430 -1100,-3133 -3067,-5925 -5695,-8081 -1370,-1125 -2913,-2062 -4555,-2767 -1690,-725 -3490,-1204 -5328,-1417 -371,-43 -649,-66 -1257,-107 -130,-9 -2140,-12 -7887,-15 -4242,-2 -7713,-1 -7713,3 0,3 3209,8206 7131,18227 3922,10022 7134,18228 7136,18235 6,15 683,17 1068,2 z"
       id="path2" />
    <path
       d="m 33131,80283 c -16,-54 -54,-179 -85,-278 -657,-2154 -1391,-4722 -3176,-11125 -2147,-7698 -3123,-11058 -4107,-14130 -305,-954 -805,-2434 -865,-2560 -12,-25 -52,-75 -89,-112 -112,-110 -298,-189 -551,-233 -247,-43 -340,-48 -1058,-51 -382,-2 -709,-6 -727,-9 -29,-5 -32,-9 -28,-33 3,-15 16,-137 30,-272 14,-135 28,-262 31,-282 l 6,-38 h 3419 c 1880,0 3419,1 3419,3 9,46 67,614 63,617 -5,6 -661,5 -1623,-1 -726,-4 -793,-1 -1007,56 -169,45 -227,85 -316,220 -175,266 -231,452 -231,765 1,278 24,420 190,1140 557,2417 1129,4542 1679,6245 l 94,290 208,-2 c 114,-2 1734,-17 3598,-34 1865,-17 3391,-32 3391,-33 1,0 563,-1940 1249,-4311 686,-2370 1250,-4316 1252,-4322 4,-10 -327,-13 -1636,-13 h -1641 v -310 -310 h 4860 4860 v 310 310 h -1294 -1293 l -92,323 c -161,562 -8091,28241 -8097,28260 -5,15 -24,17 -204,17 h -199 z m 444,-13075 c 932,-3392 1698,-6181 1701,-6198 l 7,-30 h -3453 -3452 l 6,26 c 9,35 3432,12324 3453,12394 l 16,55 13,-40 c 7,-22 776,-2815 1709,-6207 z"
       id="path4" />
    <path
       d="m 186580,80370 c -58,-5 -154,-16 -215,-24 -60,-9 -184,-23 -275,-32 -428,-41 -742,-103 -1210,-239 -2038,-594 -3928,-2027 -5660,-4291 -205,-268 -364,-489 -527,-734 -1412,-2123 -2217,-4776 -2413,-7945 -59,-966 -63,-2145 -10,-3125 158,-2904 821,-5311 1992,-7228 102,-167 348,-544 490,-751 1188,-1728 2442,-3025 3796,-3925 444,-295 618,-392 1067,-591 562,-250 961,-389 1545,-540 706,-183 1178,-245 1863,-245 439,0 667,15 1062,71 418,59 653,112 965,220 96,34 272,94 390,134 118,40 285,98 370,130 1903,708 3682,2194 5317,4440 929,1277 1619,2773 2068,4485 354,1348 558,2833 615,4485 13,375 13,1363 0,1721 -117,3227 -854,5959 -2233,8274 -865,1452 -2121,2895 -3343,3840 -524,406 -1011,717 -1549,990 -999,506 -1982,782 -3105,870 -178,14 -866,21 -1000,10 z m 890,-525 c 401,-41 777,-116 1090,-217 441,-142 901,-387 1317,-700 946,-711 1823,-1990 2625,-3823 588,-1345 971,-3115 1177,-5445 198,-2230 212,-5328 35,-7690 -188,-2522 -583,-4465 -1201,-5915 -95,-221 -331,-695 -493,-990 -679,-1231 -1383,-2132 -2142,-2740 -696,-557 -1476,-868 -2428,-967 -191,-20 -824,-17 -1017,5 -500,56 -970,187 -1452,404 -1111,499 -2126,1591 -3085,3318 -317,570 -514,1015 -717,1615 -564,1663 -900,3917 -1009,6770 -27,714 -34,1143 -34,2150 0,1581 38,2685 135,3910 222,2825 704,4904 1476,6365 877,1659 1828,2783 2853,3372 298,172 553,275 954,388 413,116 743,179 1076,205 165,13 657,4 840,-15 z"
       id="path6" />
    <path
       d="m 1720,79937 c 0,-13 13,-151 30,-308 16,-156 30,-290 30,-296 0,-10 279,-13 1360,-13 1287,0 1361,-1 1368,-17 4,-10 1913,-6439 4242,-14288 l 4236,-14270 h 178 178 l 33,105 c 49,157 1169,3799 1869,6075 2310,7514 3793,12149 5264,16455 716,2093 1639,4684 1734,4860 174,327 535,584 1073,766 457,154 1073,258 1735,295 113,6 215,13 228,15 l 22,4 v 320 320 h -3720 c -3536,0 -3720,-1 -3719,-17 2,-68 86,-814 93,-820 4,-4 321,-11 704,-14 735,-7 845,-13 1090,-60 293,-57 491,-165 702,-386 301,-313 455,-730 437,-1178 -3,-77 -13,-180 -22,-230 -43,-247 -646,-2353 -1240,-4335 -644,-2147 -1180,-3884 -2700,-8750 -1183,-3786 -1569,-5033 -1996,-6450 -98,-327 -183,-603 -187,-613 -5,-13 -1020,3638 -3081,11085 -1690,6106 -3074,11108 -3075,11113 -1,7 544,11 1612,13 1527,2 1612,3 1612,20 0,9 -14,145 -30,301 -17,157 -30,293 -30,303 0,17 -168,18 -5015,18 H 1720 Z"
       id="path8" />
    <path
       d="m 45890,79540 v -420 h 1695 1695 V 65420 51720 h -1715 -1715 v -280 -280 h 10110 10110 v 178 c 0,97 14,2181 31,4630 18,2449 30,4454 28,4456 -5,4 -467,-59 -473,-65 -2,-2 -9,-296 -15,-654 -12,-667 -20,-895 -46,-1330 -168,-2703 -787,-4326 -2035,-5331 -883,-712 -2137,-1121 -3830,-1249 -460,-34 -658,-40 -1350,-35 -1300,9 -2753,3 -3490,-14 -393,-9 -1038,-20 -1432,-23 l -718,-6 v 13701 13702 h 1715 1715 v 420 420 h -5140 -5140 z"
       id="path10" />
    <path
       d="m 90820,79604 v -357 l 548,6 c 301,3 1061,14 1689,23 628,10 1145,15 1149,11 19,-19 -46,-13455 -96,-19637 -38,-4828 -45,-5309 -80,-5865 -65,-1023 -238,-1480 -650,-1720 -296,-172 -711,-244 -1590,-275 -240,-8 -1047,-30 -1121,-30 -18,0 -19,-13 -19,-300 v -300 h 3750 3750 v 365 365 h -84 c -117,0 -375,-16 -826,-50 -754,-57 -945,-65 -1185,-50 -483,29 -774,139 -1006,377 -275,282 -420,716 -470,1408 -9,118 -10,868 -5,2885 5,2552 9,3340 36,7575 33,5223 91,12489 108,13612 l 7,422 8155,-13681 c 4485,-7524 8160,-13683 8168,-13685 11,-5 348,16 545,34 l 67,6 v 1766 c 0,971 -5,2648 -10,3726 -43,8567 -43,14021 0,17290 23,1728 64,3517 90,3955 70,1133 347,1583 1070,1738 261,57 471,69 1330,82 393,6 739,13 768,16 l 52,5 v 295 c 0,162 -1,295 -2,295 -4,2 -7083,48 -7084,46 -1,-1 -13,-144 -28,-317 -15,-173 -29,-341 -33,-374 l -6,-59 299,7 c 742,15 1462,18 1649,7 692,-44 1003,-155 1123,-404 98,-202 168,-500 207,-882 29,-275 37,-1911 31,-6055 -3,-2120 -10,-5002 -16,-6405 -6,-1402 -11,-3599 -13,-4882 -1,-1283 -5,-2329 -8,-2325 -3,4 -2923,4867 -6488,10808 -3564,5940 -6488,10809 -6495,10820 -14,19 -70,19 -2788,35 -1525,9 -3159,19 -3630,23 l -858,6 z"
       id="path12" />
    <path
       d="m 116420,79828 c 0,-73 -9,-1966 -21,-4206 -11,-2240 -18,-4076 -15,-4079 3,-3 110,8 238,26 128,17 236,31 239,31 3,0 9,35 12,78 3,42 18,217 32,387 13,171 50,659 80,1085 83,1155 122,1593 180,2027 148,1091 395,1796 837,2388 334,446 750,748 1383,1003 850,341 1961,529 3580,604 308,14 2028,19 2041,5 7,-6 -33,-18983 -53,-25389 l -6,-2028 h -1739 -1738 v -310 -310 h 5225 5225 v 310 310 h -37 c -200,2 -3365,69 -3367,71 -3,3 59,26131 64,27332 v 87 h 168 c 320,-1 944,-24 1352,-50 2023,-133 3731,-499 4690,-1007 469,-248 761,-505 1022,-898 206,-310 367,-694 482,-1152 168,-669 240,-1272 386,-3213 32,-437 71,-945 86,-1127 l 28,-333 h 279 279 l -7,343 c -6,323 -105,7935 -105,8079 v 68 h -10410 -10410 z"
       id="path14" />
    <path
       d="m 139280,79540 v -420 h 1490 1490 V 65475 51830 l -1592,-2 -1593,-3 -3,-342 -2,-343 h 4795 4795 v 345 345 h -1460 -1460 v 13645 13645 h 1530 1530 v 420 420 h -4760 -4760 z"
       id="path16" />
    <path
       d="m 150215,79932 c -3,-3 -5,-158 -5,-345 v -340 l 1318,6 c 724,4 1487,10 1695,14 l 377,6 v -734 c 0,-3056 -63,-14486 -110,-20224 -6,-665 -15,-1777 -20,-2470 -12,-1524 -24,-1937 -66,-2375 -91,-950 -323,-1342 -904,-1525 -319,-100 -727,-141 -1655,-165 -220,-5 -491,-13 -602,-16 l -203,-6 v -299 -299 h 3750 3750 v 365 365 h -84 c -117,0 -375,-16 -826,-50 -754,-57 -945,-65 -1185,-50 -394,24 -671,106 -877,261 -359,269 -545,746 -599,1539 -13,195 -7,4022 11,7085 38,6403 85,12812 121,16325 6,586 11,1065 12,1066 1,1 3672,-6154 8157,-13678 4485,-7524 8160,-13683 8167,-13685 12,-5 348,16 546,34 l 67,6 v 1836 c -1,1010 -7,3105 -16,4656 -21,3920 -30,12076 -15,14010 21,2742 58,4978 101,5985 53,1228 288,1736 896,1935 296,97 693,125 1767,125 h 567 v 299 299 l -452,6 c -249,3 -1650,13 -3113,21 -1463,8 -2853,16 -3090,17 l -430,3 -33,-364 c -18,-200 -31,-366 -28,-369 3,-2 322,1 708,7 942,16 1377,0 1723,-64 365,-68 546,-167 634,-348 115,-238 188,-601 223,-1107 17,-255 17,-7469 -1,-12125 -7,-1919 -14,-4348 -15,-5397 0,-1049 -4,-1904 -7,-1900 -3,4 -2923,4863 -6487,10798 -3565,5934 -6488,10798 -6495,10808 -12,17 -162,19 -3067,36 -1680,10 -3312,21 -3627,23 -315,2 -575,2 -578,-1 z"
       id="path18" />
    <path
       d="m 68440,79450 v -420 h 1480 1480 V 65385 51740 h -1480 -1480 v -20 c 0,-12 14,-136 30,-277 17,-140 30,-262 30,-269 0,-12 1476,-14 9890,-14 h 9890 v 253 c 0,138 9,1943 21,4010 11,2067 19,3760 17,3762 -4,4 -650,46 -653,43 -2,-2 -8,-232 -14,-513 -14,-648 -30,-970 -72,-1445 -136,-1558 -460,-2672 -984,-3382 -102,-138 -326,-374 -490,-516 -1030,-888 -2616,-1423 -4840,-1632 -421,-39 -876,-68 -1460,-92 -397,-17 -2346,-16 -3000,0 -258,7 -777,15 -1152,19 -376,3 -683,7 -683,7 -2,6 -67,13582 -65,13584 1,2 555,19 1231,38 823,24 1302,34 1449,30 1088,-29 2215,-413 2781,-948 155,-147 285,-333 435,-622 196,-379 313,-767 369,-1229 39,-322 44,-465 42,-1227 -1,-533 2,-760 11,-825 l 12,-90 353,-3 352,-2 v 367 c 0,203 -14,2485 -30,5073 -16,2588 -30,4832 -30,4988 v 282 h -254 -254 l -6,-62 c -3,-35 -10,-166 -16,-293 -80,-1705 -214,-2588 -483,-3190 -139,-313 -318,-535 -603,-752 -523,-398 -1386,-731 -2169,-837 -183,-25 -675,-56 -1220,-76 -310,-11 -1964,-44 -1970,-39 -5,6 63,13110 68,13116 5,5 5777,-67 5862,-73 28,-2 133,-8 235,-14 1360,-80 2506,-418 3301,-976 339,-238 600,-493 859,-839 262,-349 467,-672 619,-974 345,-684 493,-1315 697,-2966 26,-209 47,-381 48,-382 3,-4 456,-66 460,-62 3,3 -479,7179 -483,7197 -1,1 -4080,2 -9066,2 h -9065 z"
       id="path20" />
  </g>
</svg>
