<?xml version="1.0" encoding="utf-8"?>
<!-- Generator: Adobe Illustrator 12.0.1, SVG Export Plug-In . SVG Version: 6.00 Build 51448)  -->
<!DOCTYPE svg PUBLIC "-//W3C//DTD SVG 1.1//EN" "http://www.w3.org/Graphics/SVG/1.1/DTD/svg11.dtd" [
	<!ENTITY ns_svg "http://www.w3.org/2000/svg">
	<!ENTITY ns_xlink "http://www.w3.org/1999/xlink">
]>
<svg  version="1.1" id="Ebene_1" xmlns="&ns_svg;" xmlns:xlink="&ns_xlink;" width="750.816" height="365.99"
	 viewBox="0 0 750.816 365.99" overflow="visible" enable-background="new 0 0 750.816 365.99" xml:space="preserve">
<path d="M485.676,339.013v-0.434l0.217,0.434H485.676L485.676,339.013z M485.676,265.354c0.648,1.514,1.729,2.81,2.269,4.32
	l1.081,45.792c-0.323,8.855,2.158,16.848,9.287,22.571c5.076,4.212,13.177,5.075,19.548,2.699c7.452-3.24,12.098-11.124,13.5-18.467
	c2.053-19.333-0.323-38.987,3.889-57.456h-7.021l0.216,45.035c-0.107,8.964,0.217,18.36-7.128,24.084
	c-4.104,2.701-9.504,3.349-13.823,1.513c-5.508-2.376-8.964-8.101-9.613-13.932l-1.188-56.7h-11.017V265.354L485.676,265.354z
	 M587.627,290.521c-3.238,6.371-10.043,10.8-16.199,12.959l27.433,33.157l-1.402-66.961c-0.865-1.619-0.433-3.348-1.621-4.859
	h37.043l0.434,6.371c-7.667-2.7-16.633-3.996-25.487-3.778v32.184l25.92,0.217l-0.216,3.995l-25.38-0.324l-1.188,30.023
	c12.418,5.51,27-0.432,31.428-1.835l-4.104,7.345h-34.128c4.644,5.184,9.936,10.583,15.229,14.256
	c-8.316-2.809-17.604-6.372-23.762-14.688l-30.996-32.939c6.59-3.457,16.201-5.832,18.901-14.688
	c2.7-6.695,1.188-14.363-3.132-19.655c-4.97-5.832-12.529-6.804-19.439-4.752l-3.564,71.604h-9.504l1.728-8.101l0.865-59.94
	c-0.109-2.698-0.757-3.996-1.837-5.614c13.716-1.514,28.513-5.94,40.5,5.184C590.221,274.319,591.623,282.527,587.627,290.521
	L587.627,290.521z M652.104,264.815l46.657,61.452l-0.107-61.452h51.084l1.079,5.075c-6.047-1.079-13.932-2.376-20.196-2.592
	l-0.323,63.504c0.108,1.942,0.54,5.184,1.405,8.209h-10.153l0.864-7.992l-1.62-63.829c-5.075-0.322-10.151-0.322-15.012,0
	l-1.837,2.7c-0.647,23.652-2.159,48.816-2.159,72.359l-53.567-66.527l0.107,63.289h-6.588c1.619-22.356,1.835-45.793,2.052-68.364
	c-1.403-2.161-3.24-3.563-4.429-5.832H652.104z M485.676,264.815v0.539c-0.107-0.106-0.215-0.322-0.215-0.539H485.676
	L485.676,264.815z M485.676,338.579l-2.159-4.213l-18.792-73.654l-7.235,14.364v7.774l1.836-4.104l5.832,21.275
	c-2.376,0.323-4.97,0.323-7.668,0.431v3.89c3.131,0,6.264,0.107,9.396,0.323l9.504,34.346h9.287V338.579L485.676,338.579z
	 M457.488,364.498v-8.747c3.563-0.647,7.127-1.403,10.69-2.269l-4.534,11.016H457.488z M457.488,275.076v7.774l-7.562,17.496
	c2.376,0,4.97,0.106,7.562,0.106v3.89c-3.349,0-6.696,0.107-9.828,0l-1.297,2.809v-9.828L457.488,275.076L457.488,275.076z
	 M457.488,355.751v8.747h-11.125v-7.02C450.036,357.048,453.815,356.399,457.488,355.751z M254.232,277.234l4.536-8.854l3.024-5.725
	l1.944,7.021l16.632,66.961c0.432,0.756,1.188,1.402,1.188,2.268h-8.963l-9.504-33.589l-0.756-0.646h-8.1v-4.43l7.236,0.108
	l-5.4-19.872l-1.836,3.996L254.232,277.234L254.232,277.234z M446.363,297.324v9.827l-14.579,31.86h-7.236l6.696-11.665
	L446.363,297.324L446.363,297.324z M446.363,357.479c-11.232,1.512-22.571,2.268-34.236,2.268c-1.079-0.322-2.269-1.512-1.942-2.808
	l27.432-120.526h-14.363c-0.433,0.107,1.513,6.694,0.863,9.611l-4.428,18.792l-55.835,0.107l0.972,62.424l-0.433,1.403l-0.54-0.539
	l-47.088-63.288h-12.312c1.08,2.376,3.24,4.752,4.644,7.02l-1.729,61.236l-1.403,5.725l6.372,0.108v-62.101l0.431-0.434
	l50.868,64.368l3.132,3.132l3.133-74.304l1.188-1.188c4.428-0.431,9.396-1.079,14.039-0.106l1.188,63.72l-1.188,6.372
	c2.917,0.541,6.697,0.541,9.722,0l-0.433-2.699c0-22.572,0.541-44.929,1.942-67.393l9.396,0.433
	c4.536,1.079,9.936,0.433,13.393,3.131l-17.063,82.404l-3.349,10.15h47.628V357.479L446.363,357.479z M294.3,335.771l1.296,3.24
	l-8.208-0.108l-1.836-68.147c-0.432-2.053-2.052-4.104-2.052-6.048h11.124L294.3,335.771z M241.056,243.324
	c0.541,3.456-0.863,7.235-1.835,10.584c-5.724-10.584-16.957-17.604-28.296-17.93c-9.504-0.323-17.711,5.077-22.032,13.177
	c-5.615,10.368-1.728,22.465,5.833,30.889l28.728,36.826l4.968,10.046l25.812-49.682v7.236l-7.236,15.66l7.236,0.106v4.429h-9.612
	l-21.168,45.145c-6.696,11.341-18.36,16.957-31.428,16.093c-11.556-0.756-21.924-5.4-30.672-13.392
	c0.54-3.673,1.836-7.128,3.24-10.801c5.832,10.691,17.064,20.41,29.808,20.735c7.452,0.107,14.688-1.944,19.764-8.101
	c5.832-6.265,8.424-16.091,4.968-24.408L216,323.137l-37.476-44.713c-6.157-6.372-12.96-13.716-22.033-12.636
	c-4.536,0.432-8.64,4.644-9.828,8.854c-2.376,17.39,18.36,22.464,28.188,32.724c4.968,4.86,6.912,11.448,5.4,18.47
	c-1.728,6.479-7.776,12.421-14.256,14.146c-10.152,2.053-19.548-1.835-27.864-6.804c-1.836,1.513-0.864,5.292-3.24,5.833H97.2
	l1.188-5.51l-0.432-65.339l-35.532,74.304l-16.2-69.336l-18.36,26.46c-5.94,19.549-9.72,39.96-14.472,59.939
	c0.216,1.835,0.108,3.563,1.188,4.968H1.728l2.268-4.428l11.124-57.133c-2.808-20.952-9.612-41.363-12.96-61.992L0,236.412h12.528
	c5.076,19.872,8.424,39.743,13.392,59.508l38.124-59.508h9.936c-7.344,7.991-13.068,17.279-19.656,26.136
	c3.563,21.06,7.667,42.12,12.096,62.965l25.272-60.589h42.443v6.264c-3.996-1.942-22.464-3.778-27.216-3.239l0.324,31.751
	l26.892,0.325c0.864,1.079,0.216,2.376,0.433,3.779l-27.216,0.107l-1.62,31.536c7.344,1.729,25.38-0.863,31.536-3.349
	c1.188-2.052,1.297-4.645,2.484-6.587c4.968,5.831,11.34,11.986,19.548,11.986c5.076-0.432,10.692-2.482,13.5-7.885
	c1.62-3.022,0.864-6.479,0-9.611c-9.504-14.903-34.668-18.035-32.832-39.527c0.756-6.155,3.888-11.988,9.72-15.552
	c7.776-4.86,18.575-2.592,26.136,1.62c1.296-8.856,3.456-17.389,10.368-23.868c11.231-10.8,29.699-12.744,43.632-6.588
	C233.712,238.248,237.6,240.191,241.056,243.324z"/>
<path d="M233.604,71.604c0.648-3.023-1.295-9.504-0.864-9.61h14.364l-9.18,40.176l1.404,1.942c5.4,10.584,4.32,23.545,0,32.4
	c-1.836,3.456-4.104,6.265-6.804,8.641v-6.588c4.104-6.155,5.508-14.256,2.483-21.275l-0.323-0.864l-2.16,9.504V76.896
	L233.604,71.604L233.604,71.604z M232.524,185.22c15.552-0.648,30.564-2.484,45.144-6.156l-4.536,11.017h-40.607L232.524,185.22
	L232.524,185.22z M232.524,20.088c4.644,0.433,9.072,1.512,13.068,3.24c0.756,0.324,1.404,0.647,2.051,1.081L263.304,0h9.937
	c-7.452,8.1-14.472,17.279-21.275,26.892c1.728,1.08,3.348,2.27,4.86,3.78c0.648,3.456-0.864,7.128-1.728,10.584
	c-1.836-3.456-4.212-6.479-7.02-8.964c-5.292,7.775-10.476,15.552-15.552,23.004v-7.128l11.987-18.792
	c-3.563-2.592-7.667-4.429-11.987-5.292L232.524,20.088L232.524,20.088z M232.524,145.151c-1.513,1.513-3.24,2.699-5.184,3.671
	l-7.668,33.697c-0.324,1.295,0.864,2.483,1.944,2.808c3.672,0,7.344,0,10.909-0.108v4.86h-24.192v-0.108l3.24-10.043l5.508-27.325
	c-2.7,0.54-5.724,0.648-8.748,0.648v-3.564c0.648,0,1.296,0,1.836,0c2.7,0,5.184-0.216,7.668-0.756l9.072-44.388l-7.992-9.396
	c-2.16,9.396-4.104,18.792-6.264,27.973c0.215,1.835,0.107,3.563,1.188,4.968h-5.508V97.632l2.268-12.204l-2.268-2.701V64.584
	c0.756,0.972,1.512,1.943,2.268,2.808l2.916,3.564l0.864-4.428l-6.048-28.943V0h3.456c1.836,7.234,3.348,14.472,4.968,21.6
	c5.185-1.404,10.584-1.942,15.769-1.512v3.996c-1.836-0.433-3.78-0.648-5.725-0.756c-3.239-0.217-6.479,0.324-9.396,1.512
	c2.483,11.557,4.859,23.22,7.775,34.668l7.345-11.34v7.128c-1.729,2.7-3.564,5.399-5.4,7.884
	c-1.944,6.156-3.563,12.419-5.076,18.683l7.452,9.612l3.024-14.579v49.032l-3.996,17.28c0.54-0.433,1.08-0.974,1.512-1.513
	c0.972-0.972,1.836-1.943,2.484-3.132L232.524,145.151L232.524,145.151z M208.332,190.08h-0.108l0.108-0.108V190.08L208.332,190.08z
	 M208.332,153.252c-0.216,0-0.324,0-0.54-0.108c-11.448-0.646-21.816-5.398-30.672-13.392c0.647-3.672,1.944-7.128,3.24-10.8
	c5.616,10.26,15.984,19.548,27.972,20.735V153.252L208.332,153.252z M208.332,128.088h-7.344l2.268-4.428l5.076-26.028V128.088
	L208.332,128.088z M208.332,82.728l-13.932-16.2c-7.56-19.439,0.647-30.023,7.56-36.504c1.296-1.297,2.592-2.376,3.996-3.349
	l-4.536-22.14L199.26,0h9.072v37.584l-1.08-4.86c-0.864,1.081-1.728,2.376-2.484,3.78c-4.968,9.288-2.376,19.872,3.564,28.08V82.728
	z"/>
</svg>
